<svg width="278" height="61" viewBox="0 0 278 61" fill="none" xmlns="http://www.w3.org/2000/svg">
<path d="M0.681818 47V41.2273L17.7727 20.0682V19.8182H1.27273V12.0909H29.4318V18.3864L13.3864 39.0227V39.2727H30.0227V47H0.681818ZM46.1989 36.9545L46.2216 25.3409H47.6307L58.8125 12.0909H69.9261L54.9034 29.6364H52.608L46.1989 36.9545ZM37.4261 47V0.454544H47.108V47H37.4261ZM59.2443 47L48.9716 31.7955L55.4261 24.9545L70.5852 47H59.2443Z" fill="#1650E5"/>
<path d="M74.858 47V0.454544H106.222V8.56818H84.6989V19.6591H104.608V27.7727H84.6989V38.8864H106.312V47H74.858ZM121.955 12.0909L128.364 24.2955L134.932 12.0909H144.864L134.75 29.5455L145.136 47H135.25L128.364 34.9318L121.591 47H111.591L121.955 29.5455L111.955 12.0909H121.955ZM150.614 60.0909V12.0909H160.159V17.9545H160.591C161.015 17.0152 161.629 16.0606 162.432 15.0909C163.25 14.1061 164.311 13.2879 165.614 12.6364C166.932 11.9697 168.568 11.6364 170.523 11.6364C173.068 11.6364 175.417 12.303 177.568 13.6364C179.72 14.9545 181.439 16.947 182.727 19.6136C184.015 22.2652 184.659 25.5909 184.659 29.5909C184.659 33.4848 184.03 36.7727 182.773 39.4545C181.53 42.1212 179.833 44.1439 177.682 45.5227C175.545 46.8864 173.152 47.5682 170.5 47.5682C168.621 47.5682 167.023 47.2576 165.705 46.6364C164.402 46.0152 163.333 45.2348 162.5 44.2955C161.667 43.3409 161.03 42.3788 160.591 41.4091H160.295V60.0909H150.614ZM160.091 29.5455C160.091 31.6212 160.379 33.4318 160.955 34.9773C161.53 36.5227 162.364 37.7273 163.455 38.5909C164.545 39.4394 165.871 39.8636 167.432 39.8636C169.008 39.8636 170.341 39.4318 171.432 38.5682C172.523 37.6894 173.348 36.4773 173.909 34.9318C174.485 33.3712 174.773 31.5758 174.773 29.5455C174.773 27.5303 174.492 25.7576 173.932 24.2273C173.371 22.697 172.545 21.5 171.455 20.6364C170.364 19.7727 169.023 19.3409 167.432 19.3409C165.856 19.3409 164.523 19.7576 163.432 20.5909C162.356 21.4242 161.53 22.6061 160.955 24.1364C160.379 25.6667 160.091 27.4697 160.091 29.5455ZM206.886 47.6818C203.356 47.6818 200.303 46.9318 197.727 45.4318C195.167 43.9167 193.189 41.8106 191.795 39.1136C190.402 36.4015 189.705 33.2576 189.705 29.6818C189.705 26.0758 190.402 22.9242 191.795 20.2273C193.189 17.5152 195.167 15.4091 197.727 13.9091C200.303 12.3939 203.356 11.6364 206.886 11.6364C210.417 11.6364 213.462 12.3939 216.023 13.9091C218.598 15.4091 220.583 17.5152 221.977 20.2273C223.371 22.9242 224.068 26.0758 224.068 29.6818C224.068 33.2576 223.371 36.4015 221.977 39.1136C220.583 41.8106 218.598 43.9167 216.023 45.4318C213.462 46.9318 210.417 47.6818 206.886 47.6818ZM206.932 40.1818C208.538 40.1818 209.879 39.7273 210.955 38.8182C212.03 37.8939 212.841 36.6364 213.386 35.0455C213.947 33.4545 214.227 31.6439 214.227 29.6136C214.227 27.5833 213.947 25.7727 213.386 24.1818C212.841 22.5909 212.03 21.3333 210.955 20.4091C209.879 19.4848 208.538 19.0227 206.932 19.0227C205.311 19.0227 203.947 19.4848 202.841 20.4091C201.75 21.3333 200.924 22.5909 200.364 24.1818C199.818 25.7727 199.545 27.5833 199.545 29.6136C199.545 31.6439 199.818 33.4545 200.364 35.0455C200.924 36.6364 201.75 37.8939 202.841 38.8182C203.947 39.7273 205.311 40.1818 206.932 40.1818ZM230.364 47V12.0909H239.75V18.1818H240.114C240.75 16.0152 241.818 14.3788 243.318 13.2727C244.818 12.1515 246.545 11.5909 248.5 11.5909C248.985 11.5909 249.508 11.6212 250.068 11.6818C250.629 11.7424 251.121 11.8258 251.545 11.9318V20.5227C251.091 20.3864 250.462 20.2652 249.659 20.1591C248.856 20.053 248.121 20 247.455 20C246.03 20 244.758 20.3106 243.636 20.9318C242.53 21.5379 241.652 22.3864 241 23.4773C240.364 24.5682 240.045 25.8258 240.045 27.25V47H230.364ZM276.869 12.0909V19.3636H255.847V12.0909H276.869ZM260.619 3.72727H270.301V36.2727C270.301 37.1667 270.438 37.8636 270.71 38.3636C270.983 38.8485 271.362 39.1894 271.847 39.3864C272.347 39.5833 272.922 39.6818 273.574 39.6818C274.028 39.6818 274.483 39.6439 274.938 39.5682C275.392 39.4773 275.741 39.4091 275.983 39.3636L277.506 46.5682C277.021 46.7197 276.339 46.8939 275.46 47.0909C274.581 47.303 273.513 47.4318 272.256 47.4773C269.922 47.5682 267.877 47.2576 266.119 46.5455C264.377 45.8333 263.021 44.7273 262.051 43.2273C261.081 41.7273 260.604 39.8333 260.619 37.5455V3.72727Z" fill="#030F2D"/>
</svg>
